<svg xmlns="http://www.w3.org/2000/svg" viewBox="0 0 128 128"><defs><style>.a,.b{fill:none;}.a{stroke:#cba977;stroke-linecap:round;stroke-linejoin:round;stroke-width:2px;}</style></defs><path class="a" d="M37.11,39.51a54.53,54.53,0,0,1,5.59-24.1,54.68,54.68,0,1,0,73.18,73.18A54.68,54.68,0,0,1,37.11,39.51Z"/><polygon class="a" points="89.64 24.11 80.16 28.33 78.25 38.54 71.31 30.82 61.01 32.16 66.21 23.17 61.75 13.8 71.9 15.96 79.44 8.82 80.52 19.15 89.64 24.11"/><polygon class="a" points="103.36 63.26 95.49 66.76 93.91 75.23 88.15 68.83 79.61 69.94 83.92 62.48 80.22 54.7 88.64 56.49 94.9 50.57 95.8 59.14 103.36 63.26"/><rect class="b" width="128" height="128"/></svg>