<svg xmlns="http://www.w3.org/2000/svg" viewBox="0 0 128 128"><defs><style>.a{fill:none;stroke:#cba977;stroke-linecap:round;stroke-linejoin:round;stroke-width:2px;}</style></defs><title>Icons.Gold.free-delivery</title><path class="a" d="M38,20h0a10,10,0,0,1,6.6,2.49,10.25,10.25,0,0,1,1.78,2.05A10,10,0,0,1,48,30V40H38a10,10,0,0,1-6.31-2.24,9.65,9.65,0,0,1-1.55-1.58A10,10,0,0,1,28,30h0A10,10,0,0,1,38,20Z"/><path class="a" d="M58,20h0A10,10,0,0,0,48,30V40H58a10,10,0,0,0,5.88-1.91,10.3,10.3,0,0,0,2-1.91A10,10,0,0,0,68,30h0A10,10,0,0,0,58,20Z"/><line class="a" x1="8" y1="72" x2="84" y2="72"/><line class="a" x1="48" y1="40" x2="48" y2="100"/><polyline class="a" points="108 100 120 100 120 80 100 56 84 56 84 100 92 100"/><polyline class="a" points="20 100 8 100 8 40 84 40 84 100 36 100"/><circle class="a" cx="28" cy="100" r="8"/><circle class="a" cx="100" cy="100" r="8"/></svg>