<svg xmlns="http://www.w3.org/2000/svg" viewBox="0 0 128 128"><defs><style>.a,.b{fill:none;}.a{stroke:#cba977;stroke-linecap:round;stroke-linejoin:round;stroke-width:2px;}</style></defs><polyline class="a" points="42.3 116.75 20.27 116.75 20.27 94.98"/><polyline class="a" points="108.38 94.98 108.38 116.75 86.35 116.75"/><path class="a" d="M84.13,73.22h2.22a22,22,0,0,1,22,21.76"/><path class="a" d="M20.27,95a21.54,21.54,0,0,1,6.47-15.37A22.07,22.07,0,0,1,42.3,73.22h2.22"/><line class="a" x1="86.35" y1="116.74" x2="42.3" y2="116.74"/><path class="a" d="M84.13,73.22a22.16,22.16,0,0,1-39.61,0"/><rect class="a" x="55.44" y="69.35" width="8.92" height="6.34" rx="2.96" transform="translate(12.08 -8.48) rotate(9)"/><path class="a" d="M72.13,57.89a8.73,8.73,0,0,1-15.66,0"/><path class="a" d="M81.82,41.13a31.1,31.1,0,0,1-30.49-25"/><path class="a" d="M64.3,73.22a30,30,0,0,0,0-60,29.59,29.59,0,0,0-13,3"/><path class="a" d="M51.33,16.16a30.19,30.19,0,0,0-17,27"/><path class="a" d="M30.82,52.76a33.1,33.1,0,0,1,.05-19.28"/><path class="a" d="M97.78,52.76a32.93,32.93,0,0,0,1.41-9.56,33.32,33.32,0,0,0-1.45-9.72"/><path class="a" d="M37,55.74a30,30,0,1,1,53.53,2"/><rect class="b" width="128" height="128"/></svg>